<?xml version="1.0" encoding="UTF-8"?>
<svg viewBox="0 0 254.13458 250" xmlns="http://www.w3.org/2000/svg" xmlns:xlink="http://www.w3.org/1999/xlink">
 <defs>
  <filter id="q">
   <feGaussianBlur stdDeviation="3.25903"/>
  </filter>
  <filter id="p">
   <feGaussianBlur stdDeviation="4.2201"/>
  </filter>
  <filter id="o">
   <feGaussianBlur stdDeviation="4.27973"/>
  </filter>
  <filter id="s" x="-.03732" y="-.15295" width="1.0746" height="1.3059">
   <feGaussianBlur stdDeviation="3.04098"/>
  </filter>
  <filter id="r" x="-.11628" y="-.04043" width="1.2326" height="1.0809">
   <feGaussianBlur stdDeviation="3.95047"/>
  </filter>
  <linearGradient id="a">
   <stop stop-opacity="0" offset="0"/>
   <stop stop-color="#fff" offset="1"/>
  </linearGradient>
  <linearGradient id="b">
   <stop stop-color="#129b52" offset="0"/>
   <stop stop-color="#129b52" stop-opacity="0" offset="1"/>
  </linearGradient>
  <linearGradient id="k" x1="489.2" x2="302.09" y1="546.1" y2="456.19" gradientUnits="userSpaceOnUse">
   <stop stop-color="#83016a" offset="0"/>
   <stop stop-color="#83016a" stop-opacity="0" offset="1"/>
  </linearGradient>
  <linearGradient id="i" x1="371.99" x2="371.38" y1="642.96" y2="413.23" gradientUnits="userSpaceOnUse">
   <stop stop-color="#fd0202" offset="0"/>
   <stop stop-color="#fd0202" stop-opacity="0" offset="1"/>
  </linearGradient>
  <linearGradient id="g" x1="263.86" x2="445.03" y1="572.23" y2="446.75" gradientUnits="userSpaceOnUse">
   <stop stop-color="#0896c4" offset="0"/>
   <stop stop-color="#0896c4" stop-opacity="0" offset="1"/>
  </linearGradient>
  <linearGradient id="e" x1="285.03" x2="444.52" y1="426.02" y2="585.06" gradientUnits="userSpaceOnUse">
   <stop stop-color="#fcd506" offset="0"/>
   <stop stop-color="#fcd506" stop-opacity="0" offset="1"/>
  </linearGradient>
  <linearGradient id="n" x1="429.16" x2="267.48" y1="413.44" y2="605.5" gradientUnits="userSpaceOnUse" xlink:href="#a"/>
  <linearGradient id="m" x1="439.84" x2="304.62" y1="416.68" y2="580.36" gradientUnits="userSpaceOnUse" xlink:href="#b"/>
  <linearGradient id="l" x1="489.79" x2="274.29" y1="546.81" y2="467.97" gradientUnits="userSpaceOnUse" xlink:href="#a"/>
  <linearGradient id="j" x1="372.52" x2="375.95" y1="642.78" y2="347.53" gradientUnits="userSpaceOnUse" xlink:href="#a"/>
  <linearGradient id="h" x1="259.21" x2="484.49" y1="572.25" y2="482.49" gradientUnits="userSpaceOnUse" xlink:href="#a"/>
  <linearGradient id="f" x1="284.34" x2="472.68" y1="425.25" y2="616.04" gradientUnits="userSpaceOnUse" xlink:href="#a"/>
  <linearGradient id="d" x1="391.96" x2="338.5" y1="396.22" y2="591.03" gradientUnits="userSpaceOnUse" xlink:href="#a"/>
  <linearGradient id="c" x1="438.19" x2="302.97" y1="415.93" y2="579.61" gradientUnits="userSpaceOnUse" xlink:href="#b"/>
 </defs>
 <g transform="translate(-241.27 -390.05)" fill-rule="evenodd">
  <path d="m370.36 397.53c-8.1402-0.04669-16.047 0.55014-23.665 1.7218 0.79671 8.584 1.3202 17.019 2.3119 25.699 14.074-1.9066 21.428-1.3084 21.483-1.3179-0.05073-8.7026-0.08013-17.4-0.13086-26.103z" fill="url(#c)"/>
  <path d="m370.3 397.4c-8.1402-0.04669-16.047 0.55014-23.665 1.7218 0.7967 8.584 1.3202 17.019 2.3119 25.699 14.074-1.9066 21.428-1.3084 21.483-1.3179-0.05074-8.7026-0.08013-17.4-0.13086-26.103z" fill="url(#d)" stroke="#fff" stroke-width="2.3568"/>
  <path d="m371.67 429.92c-0.06028-10.607-0.12056-21.215-0.18083-31.822-65.167-0.38349-114.04 42.393-128.34 100.99 10.607 2.3483 20.631 5.2664 31.238 7.6146 4.1308-28.69 34.984-76.1 97.286-76.778z" fill="url(#e)"/>
  <path d="m370.97 429.15c-0.06027-10.607-0.12056-21.215-0.18083-31.822-65.167-0.3835-114.04 42.393-128.34 100.99 10.607 2.3483 20.631 5.2663 31.238 7.6146 4.1308-28.69 34.984-76.1 97.286-76.778z" fill="url(#f)" stroke="#fff" stroke-width="2.3568"/>
  <path transform="matrix(.67336 0 0 .67336 794.64 310.73)" d="m-629.94 129.31c-96.779-0.56952-169.36 62.985-190.59 150 2.5405 0.56245 5.0598 1.1506 7.5625 1.75 21.805-83.194 90.922-144.07 183.06-146.34-0.01024-1.8012-0.02102-3.605-0.03125-5.4062z" fill="#fff" fill-opacity=".27451" filter="url(#o)"/>
  <path d="m286.88 487.99-30.627-8.6424c-18.423 62.51 9.1381 121.33 61.476 151.3 5.1949-9.541 10.776-18.364 15.971-27.905-26.422-11.918-63.429-54.698-46.82-114.75z" fill="url(#g)"/>
  <path d="m286.96 488.73-30.627-8.6424c-18.423 62.51 9.1381 121.33 61.476 151.3 5.1949-9.541 10.776-18.364 15.971-27.905-26.422-11.918-63.429-54.698-46.82-114.75z" fill="url(#h)" stroke="#fff" stroke-width="2.3568"/>
  <path transform="matrix(.67336 0 0 .67336 485.98 177.92)" d="m-304.53 460.2c-24.139 92.532 32.055 158.68 73.375 178.28 1.0942-1.9388 2.1749-3.9005 3.25-5.875-39.24-17.699-94.197-81.225-69.531-170.41l-7.0938-2z" fill="#fff" fill-opacity=".27465" filter="url(#q)"/>
  <path d="m317.62 588.26-19.08 26.297c51.65 37.497 116.4 30.173 163.18-9.8994-7.0259-7.9847-13.244-16.106-20.27-24.09-20.62 21.259-73.824 42.681-123.83 7.6928z" fill="url(#i)"/>
  <path d="m318.15 588.08-19.08 26.297c51.65 37.497 116.4 30.173 163.18-9.8994-7.0259-7.9847-13.244-16.106-20.27-24.09-20.62 21.259-73.824 42.681-123.83 7.6928z" fill="url(#j)" stroke="#fff" stroke-width="2.3568"/>
  <path transform="matrix(.67336 0 0 .67336 235.19 150.39)" d="m307.83 639.02c-30.623 31.571-109.64 63.398-183.91 11.438l-6.0625 8.3438c76.099 47.339 152.29 28.822 195.56-13.25-1.8414-2.1782-3.6868-4.3641-5.5938-6.5312z" fill="#fff" fill-opacity=".27451" filter="url(#s)"/>
  <path d="m421.49 588.84 18.889 26.434c51.94-37.094 65.529-100.83 42.36-157.9-9.8006 4.1312-19.474 7.4527-29.275 11.584 13.623 26.297 17.067 83.549-31.974 119.88z" fill="url(#k)"/>
  <path d="m422.08 589.56 18.889 26.434c51.94-37.094 65.529-100.83 42.36-157.9-9.8006 4.1312-19.474 7.4527-29.275 11.584 13.623 26.297 17.067 83.549-31.974 119.88z" fill="url(#l)" stroke="#fff" stroke-width="2.3568"/>
  <path transform="matrix(.67336 0 0 .67336 236.85 149.83)" d="m366.64 455.76c-2.1334 0.89929-4.2485 1.7698-6.375 2.625 32.338 82.31 13.41 173.46-58.969 228.47 0.81204 1.1364 1.6255 2.2699 2.4375 3.4062 77.136-55.088 97.315-149.74 62.906-234.5z" fill="#fff" fill-opacity=".27451" filter="url(#r)"/>
  <path d="m358.92 392.07c-3.717 0.04312-7.4612 0.23151-11.216 0.56814 0.2785 2.5011 0.51797 4.9993 0.73648 7.4701 7.5623-1.2337 15.425-1.8573 23.526-1.8096 0.04895 8.615 0.0773 17.225 0.12625 25.84 29.052 3.2472 66.29 21.745 82.571 67.82 10.02-3.4819 20.05-6.9762 30.07-10.458-19.386-57.938-70.059-90.077-125.81-89.431z" fill="url(#m)"/>
  <path d="m357.38 391.24c-3.717 0.04313-7.4612 0.23152-11.216 0.56815 0.27851 2.5011 0.51798 4.9993 0.73649 7.4701 7.5623-1.2337 15.425-1.8573 23.526-1.8097 0.04895 8.615 0.0773 17.225 0.12625 25.84 29.052 3.2472 66.29 21.745 82.571 67.82 10.02-3.4819 20.05-6.9762 30.07-10.458-19.386-57.938-70.059-90.077-125.81-89.431z" fill="url(#n)" stroke="#fff" stroke-width="2.3568"/>
  <path transform="matrix(.67336 0 0 .67336 652.21 350.64)" d="m-438.78 59.156c-5.52 0.06404-11.081 0.34382-16.656 0.84375 0.25937 2.3293 0.49835 4.6518 0.71875 6.9688 4.7916-0.37708 9.5647-0.60117 14.312-0.65625 80.899-0.93859 154.59 44.594 184.78 126.94l3.6875-1.2812c-28.79-86.043-104.04-133.77-186.84-132.81z" fill="#fff" fill-opacity=".27451" filter="url(#p)"/>
 </g>
</svg>
